<svg width="84" height="90" viewBox="0 0 84 90" fill="none" xmlns="http://www.w3.org/2000/svg">
<path d="M45.1875 12.1257V4.58246C45.1848 4.2136 45.0551 3.85692 44.8203 3.57246C44.5855 3.28799 44.2598 3.0931 43.8981 3.02058L42.8208 2.80383L41.0836 11.4946L45.1875 12.1257Z" fill="#FB6B00"/>
<path d="M33.5101 10.3295L37.9296 11.01L39.697 2.17584L33.032 0.837091C31.5817 0.557395 30.0914 0.557395 28.6412 0.837091L21.9905 2.17265L23.7579 11.0068L28.1774 10.3263C29.9446 10.0532 31.7433 10.0543 33.5101 10.3295Z" fill="#FB6B00"/>
<path d="M11.7188 24.2812C11.7188 24.7039 11.8867 25.1093 12.1855 25.4082C12.4844 25.7071 12.8898 25.875 13.3125 25.875V22.6875C12.8898 22.6875 12.4844 22.8554 12.1855 23.1543C11.8867 23.4532 11.7188 23.8586 11.7188 24.2812Z" fill="#FB6B00"/>
<path d="M13.5149 16.4718C13.3987 16.6944 13.3373 16.9415 13.3356 17.1926C13.334 17.4437 13.3921 17.6916 13.5053 17.9157L13.6647 18.2345C13.8184 18.5438 14.0684 18.7949 14.3771 18.9498C14.6858 19.1047 15.0365 19.1552 15.3764 19.0935L28.2762 16.7475C29.9718 16.4383 31.7093 16.4383 33.4049 16.7475L46.3031 19.0983C46.6424 19.1598 46.9925 19.1097 47.3008 18.9554C47.6091 18.801 47.8591 18.5509 48.0132 18.2425L48.1726 17.9141C48.2844 17.6895 48.3416 17.4416 48.3394 17.1907C48.3373 16.9398 48.276 16.6929 48.1604 16.4701C48.0449 16.2474 47.8783 16.0551 47.6744 15.9089C47.4705 15.7627 47.2349 15.6667 46.9868 15.6287L33.0128 13.4803C31.5679 13.2572 30.0973 13.2572 28.6523 13.4803L14.6783 15.6287C14.4314 15.6669 14.1971 15.7632 13.9948 15.9098C13.7925 16.0564 13.628 16.2491 13.5149 16.4718Z" fill="#FB6B00"/>
<path d="M82.9594 26.1506C83.7138 23.3329 83.3333 20.3317 81.8996 17.7914L80.2931 23.7855C80.2165 24.0713 80.062 24.3302 79.8466 24.5331C79.6313 24.7361 79.3637 24.8751 79.0738 24.9345L72.09 26.3689C71.8478 26.4182 71.5974 26.4104 71.3587 26.3462C71.12 26.2821 70.8995 26.1632 70.7146 25.9992L65.3819 21.2705C65.1615 21.0738 65 20.8198 64.9156 20.5366C64.8311 20.2535 64.8271 19.9525 64.9038 19.6672L66.5103 13.6699C65.046 14.5346 63.799 15.7229 62.865 17.1439C61.9309 18.565 61.3345 20.1809 61.1214 21.8681C60.9083 23.5552 61.0843 25.2687 61.6357 26.8774C62.1872 28.486 63.0996 29.947 64.303 31.1486C64.5003 31.3464 64.6422 31.5926 64.7143 31.8625C64.7865 32.1325 64.7864 32.4166 64.7142 32.6865L57.2235 60.6377C57.1512 60.9077 57.0092 61.1539 56.8117 61.3517C56.6143 61.5495 56.3682 61.6919 56.0983 61.7645C54.4553 62.2029 52.9345 63.0117 51.6525 64.1289C50.3704 65.246 49.3612 66.6419 48.7021 68.2094C48.043 69.777 47.7516 71.4747 47.8501 73.1723C47.9487 74.8699 48.4346 76.5225 49.2707 78.0032L50.8756 72.0075C50.9524 71.722 51.1071 71.4634 51.3224 71.2608C51.5377 71.0581 51.8052 70.9194 52.0948 70.86L59.0771 69.4257C59.1821 69.405 59.2888 69.3943 59.3958 69.3938C59.7853 69.3941 60.1611 69.5369 60.4525 69.7954L65.7867 74.5241C66.0075 74.7209 66.1691 74.9752 66.2536 75.2587C66.338 75.5421 66.3419 75.8435 66.2649 76.129L64.6584 82.1247C66.123 81.26 67.3702 80.0715 68.3043 78.6502C69.2385 77.2289 69.8348 75.6126 70.0476 73.9251C70.2603 72.2377 70.0839 70.5239 69.5318 68.9152C68.9797 67.3065 68.0666 65.8456 66.8625 64.6444C66.6652 64.4466 66.5233 64.2004 66.4512 63.9305C66.379 63.6605 66.379 63.3764 66.4513 63.1064L73.942 35.1569C74.0142 34.8869 74.1563 34.6406 74.3538 34.4429C74.5512 34.2451 74.7973 34.1027 75.0672 34.0301C76.9569 33.5218 78.6803 32.5266 80.0652 31.144C81.4501 29.7613 82.4481 28.0395 82.9594 26.1506Z" fill="#FB6B00"/>
<path d="M16.5 4.58248V12.1257L20.6039 11.4882L18.8667 2.79749L17.7878 3.01424C17.4253 3.0873 17.0992 3.28327 16.8646 3.56901C16.6299 3.85476 16.5012 4.21275 16.5 4.58248Z" fill="#FB6B00"/>
<path d="M32.836 19.8823C31.5186 19.6432 30.1689 19.6432 28.8516 19.8823L16.5 22.1295V30.6561C16.5 34.4603 18.0112 38.1086 20.7012 40.7986C23.3912 43.4886 27.0396 44.9998 30.8438 44.9998C34.648 44.9998 38.2964 43.4886 40.9863 40.7986C43.6763 38.1086 45.1875 34.4603 45.1875 30.6561V22.1295L32.836 19.8823ZM21.2813 24.2811H24.4688V27.4686H21.2813V24.2811ZM30.8438 40.2186C29.153 40.2186 27.5315 39.5469 26.336 38.3514C25.1404 37.1558 24.4688 35.5343 24.4688 33.8436H27.6563C27.6563 34.6889 27.9921 35.4997 28.5899 36.0975C29.1876 36.6952 29.9984 37.0311 30.8438 37.0311C31.6891 37.0311 32.4999 36.6952 33.0977 36.0975C33.6954 35.4997 34.0313 34.6889 34.0313 33.8436H37.2188C37.2188 35.5343 36.5471 37.1558 35.3516 38.3514C34.156 39.5469 32.5345 40.2186 30.8438 40.2186ZM40.4063 27.4686H37.2188V24.2811H40.4063V27.4686Z" fill="#FB6B00"/>
<path d="M28.273 59.0265L24.0241 54.7776L22.781 55.1665L24.0113 61.5845L28.273 59.0265Z" fill="#FB6B00"/>
<path d="M49.9688 24.2812C49.9688 23.8586 49.8008 23.4532 49.502 23.1543C49.2031 22.8554 48.7977 22.6875 48.375 22.6875V25.875C48.7977 25.875 49.2031 25.7071 49.502 25.4082C49.8008 25.1093 49.9688 24.7039 49.9688 24.2812Z" fill="#FB6B00"/>
<path d="M22.875 72.0936H38.8125C40.0806 72.0936 41.2967 71.5899 42.1934 70.6932C43.09 69.7966 43.5938 68.5805 43.5938 67.3124V56.6343L41.9697 56.1259L40.376 64.4261C40.328 64.6788 40.2196 64.9161 40.0599 65.1177C39.9003 65.3194 39.6943 65.4794 39.4594 65.5842C39.2245 65.689 38.9678 65.7353 38.7111 65.7193C38.4544 65.7033 38.2054 65.6254 37.9854 65.4923L30.8438 61.202L23.6958 65.4907C23.4757 65.6238 23.2267 65.7017 22.9701 65.7177C22.7134 65.7337 22.4566 65.6874 22.2217 65.5826C21.9869 65.4778 21.7808 65.3178 21.6212 65.1161C21.4616 64.9145 21.3532 64.6772 21.3052 64.4245L19.7114 56.1243L18.0938 56.6343V67.3124C18.0938 68.5805 18.5975 69.7966 19.4942 70.6932C20.3908 71.5899 21.6069 72.0936 22.875 72.0936Z" fill="#FB6B00"/>
<path d="M52.7243 59.632C52.1821 59.3756 51.6242 59.1537 51.0541 58.9674L46.7812 57.6302V65.038C48.2101 62.7093 50.2711 60.8345 52.7243 59.632Z" fill="#FB6B00"/>
<path d="M38.9065 55.1665L37.6634 54.7776L33.4145 59.0265L37.6762 61.5845L38.9065 55.1665Z" fill="#FB6B00"/>
<path d="M61.125 85.9273V89.6248H53.1563V84.8436H49.9688V89.6248H11.7188V72.0936H8.53126V89.6248H0.562511V72.6514C0.552783 69.5913 1.52641 66.6091 3.33988 64.1443C5.15334 61.6794 7.71071 59.8624 10.635 58.9611L14.9063 57.6223V67.3123C14.9063 69.4258 15.7458 71.4526 17.2403 72.9471C18.7347 74.4415 20.7616 75.2811 22.875 75.2811H38.8125C39.9108 75.2794 40.9967 75.049 42.001 74.6045C43.0053 74.16 43.906 73.5111 44.6456 72.6992C44.6869 76.4398 46.1915 80.0155 48.8372 82.6601C49.0379 82.8556 49.2855 82.9964 49.5561 83.0689C49.8268 83.1415 50.1115 83.1434 50.3831 83.0745C50.651 82.9949 50.8947 82.8497 51.0923 82.6521C51.2899 82.4545 51.4351 82.2108 51.5147 81.9429L53.6981 73.7829L58.9256 72.6992L62.926 76.2533L60.7425 84.4133C60.6758 84.6776 60.6758 84.9543 60.7426 85.2186C60.8094 85.4829 60.9408 85.7264 61.125 85.9273Z" fill="#FB6B00"/>
<path d="M35.625 52.3089V47.5165C32.5003 48.4139 29.1857 48.4111 26.0625 47.5085V52.3089L30.8438 57.0902L35.625 52.3089Z" fill="#FB6B00"/>
</svg>
