<svg width="86" height="86" viewBox="0 0 86 86" fill="none" xmlns="http://www.w3.org/2000/svg">
<path d="M42.9987 0C26.6963 0 13.4362 13.2601 13.4362 29.5625C13.4362 45.8649 26.6963 59.125 42.9987 59.125C59.2957 59.125 72.5612 45.8649 72.5612 29.5625C72.5612 13.2601 59.2957 0 42.9987 0ZM58.5378 25.3808L53.4315 31.777L53.9905 40.1351C54.055 41.065 53.6304 41.9626 52.8618 42.5055C52.3942 42.8334 51.8513 43 51.303 43C50.9483 43 50.5882 42.9301 50.2549 42.785L42.9987 39.7051L35.7478 42.785C34.8878 43.1505 33.8988 43.0484 33.1409 42.5055C32.3777 41.9626 31.953 41.065 32.0122 40.1351L32.5712 31.777L27.4649 25.3808C26.8952 24.6713 26.7285 23.7199 27.0134 22.8545C27.2983 21.9891 28.0024 21.3334 28.8839 21.1023L36.5057 19.1081L40.6874 12.0669C41.6549 10.4329 44.3424 10.4329 45.3045 12.0669L49.4863 19.1081L57.1134 21.1023C57.9895 21.3334 58.6937 21.9945 58.9839 22.8545C59.2742 23.7145 59.1022 24.6659 58.5378 25.3808Z" fill="#FB6B00"/>
<path d="M12.7642 46.9938L0.358747 68.5314C-0.184128 69.4774 -0.103503 70.6545 0.557622 71.5145C1.21875 72.3745 2.33137 72.7615 3.38487 72.4713L19.1659 68.2304L23.3637 84.0114C23.6432 85.0595 24.5301 85.8389 25.6051 85.984C25.7234 85.9948 25.847 86.0001 25.9599 86.0001C26.9112 86.0001 27.8035 85.4949 28.2872 84.6564L40.0209 64.3496C28.3625 63.3606 18.3435 56.6258 12.7642 46.9938Z" fill="#FB6B00"/>
<path d="M85.6439 68.5314L73.2331 46.9938C67.6592 56.6258 57.6348 63.3606 45.9764 64.3496L57.7101 84.6564C58.1938 85.4949 59.0861 86.0001 60.0374 86.0001C60.1503 86.0001 60.2739 85.9948 60.3868 85.9786C61.4672 85.8335 62.3487 85.0541 62.6336 84.006L66.8314 68.225L82.6124 72.4659C83.6659 72.7561 84.7732 72.3691 85.4397 71.5091C86.1062 70.6545 86.1814 69.4774 85.6439 68.5314Z" fill="#FB6B00"/>
</svg>
