<svg width="58" height="58" viewBox="0 0 58 58" fill="none" xmlns="http://www.w3.org/2000/svg">
<path d="M34.5508 29C34.5508 32.0657 32.0657 34.5508 29 34.5508C25.9343 34.5508 23.4492 32.0657 23.4492 29C23.4492 25.9343 25.9343 23.4492 29 23.4492C32.0657 23.4492 34.5508 25.9343 34.5508 29Z" fill="#FB6B00"/>
<path d="M41.9813 19.1792C41.7144 18.4561 41.2887 17.8016 40.7356 17.2644C40.1984 16.7113 39.5444 16.2856 38.8209 16.0188C38.2341 15.7909 37.3527 15.5196 35.7291 15.4457C33.9728 15.3656 33.4462 15.3484 28.9999 15.3484C24.5532 15.3484 24.0266 15.3652 22.2708 15.4453C20.6472 15.5196 19.7653 15.7909 19.179 16.0188C18.4555 16.2856 17.801 16.7113 17.2643 17.2644C16.7111 17.8016 16.2854 18.4557 16.0182 19.1792C15.7903 19.7659 15.519 20.6478 15.4451 22.2714C15.365 24.0272 15.3478 24.5538 15.3478 29.0006C15.3478 33.4468 15.365 33.9734 15.4451 35.7297C15.519 37.3533 15.7903 38.2347 16.0182 38.8215C16.2854 39.545 16.7107 40.199 17.2638 40.7362C17.801 41.2894 18.455 41.715 19.1785 41.9819C19.7653 42.2102 20.6472 42.4815 22.2708 42.5554C24.0266 42.6355 24.5528 42.6523 28.9995 42.6523C33.4467 42.6523 33.9733 42.6355 35.7287 42.5554C37.3522 42.4815 38.2341 42.2102 38.8209 41.9819C40.2732 41.4217 41.4211 40.2738 41.9813 38.8215C42.2092 38.2347 42.4804 37.3533 42.5547 35.7297C42.6348 33.9734 42.6517 33.4468 42.6517 29.0006C42.6517 24.5538 42.6348 24.0272 42.5547 22.2714C42.4809 20.6478 42.2096 19.7659 41.9813 19.1792ZM28.9999 37.5511C24.2771 37.5511 20.4485 33.723 20.4485 29.0001C20.4485 24.2773 24.2771 20.4491 28.9999 20.4491C33.7224 20.4491 37.5509 24.2773 37.5509 29.0001C37.5509 33.723 33.7224 37.5511 28.9999 37.5511ZM37.889 22.1094C36.7854 22.1094 35.8906 21.2147 35.8906 20.1111C35.8906 19.0075 36.7854 18.1127 37.889 18.1127C38.9926 18.1127 39.8873 19.0075 39.8873 20.1111C39.8869 21.2147 38.9926 22.1094 37.889 22.1094Z" fill="#FB6B00"/>
<path d="M29 0C12.9862 0 0 12.9862 0 29C0 45.0138 12.9862 58 29 58C45.0138 58 58 45.0138 58 29C58 12.9862 45.0138 0 29 0ZM45.5519 35.8655C45.4714 37.6381 45.1895 38.8484 44.778 39.9077C43.9129 42.1446 42.1446 43.9129 39.9077 44.778C38.8488 45.1895 37.6381 45.4709 35.8659 45.5519C34.0901 45.6329 33.5228 45.6523 29.0004 45.6523C24.4776 45.6523 23.9108 45.6329 22.1345 45.5519C20.3623 45.4709 19.1516 45.1895 18.0927 44.778C16.9811 44.3598 15.9749 43.7044 15.143 42.857C14.296 42.0256 13.6407 41.0189 13.2225 39.9077C12.811 38.8488 12.5291 37.6381 12.4485 35.8659C12.3667 34.0897 12.3477 33.5224 12.3477 29C12.3477 24.4776 12.3667 23.9103 12.4481 22.1345C12.5286 20.3619 12.8101 19.1516 13.2216 18.0923C13.6398 16.9811 14.2956 15.9744 15.143 15.143C15.9744 14.2956 16.9811 13.6402 18.0923 13.222C19.1516 12.8105 20.3619 12.5291 22.1345 12.4481C23.9103 12.3671 24.4776 12.3477 29 12.3477C33.5224 12.3477 34.0897 12.3671 35.8655 12.4485C37.6381 12.5291 38.8484 12.8105 39.9077 13.2216C41.0189 13.6398 42.0256 14.2956 42.8575 15.143C43.7044 15.9749 44.3602 16.9811 44.778 18.0923C45.1899 19.1516 45.4714 20.3619 45.5523 22.1345C45.6333 23.9103 45.6523 24.4776 45.6523 29C45.6523 33.5224 45.6333 34.0897 45.5519 35.8655Z" fill="#FB6B00"/>
</svg>
