<svg width="63" height="67" viewBox="0 0 63 67" fill="none" xmlns="http://www.w3.org/2000/svg">
<path d="M33.7133 66.8107C33.3086 66.8107 32.9052 66.7 32.5497 66.4803C31.8973 66.0769 31.5 65.3645 31.5 64.5973V33.6107C31.5 32.7724 31.9737 32.006 32.7234 31.6311L59.2834 18.3511C59.9701 18.008 60.7843 18.0448 61.437 18.4479C62.0894 18.8513 62.4867 19.5637 62.4867 20.3309V51.3176C62.4867 52.1559 62.013 52.9223 61.2632 53.2972L34.7032 66.5772C34.3906 66.7332 34.0517 66.8107 33.7133 66.8107ZM35.9267 34.9785V61.0159L58.06 49.9492V23.9118L35.9267 34.9785Z" fill="white"/>
<path d="M30.504 29.4053C30.1485 29.4053 29.7935 29.3196 29.4704 29.1491L3.90637 15.6478C3.15605 15.2513 2.69844 14.4612 2.72805 13.6132C2.75765 12.7652 3.26976 12.0088 4.04609 11.666L29.6101 0.378022C30.1607 0.134832 30.7865 0.126809 31.3431 0.354506L58.8991 11.6425C59.7056 11.9728 60.2432 12.7459 60.2722 13.6168C60.3013 14.4877 59.8168 15.2948 59.0339 15.6782L31.4779 29.1796C31.1708 29.3301 30.8371 29.4053 30.504 29.4053ZM10.0166 13.8686L30.5419 24.7086L52.6617 13.8711L30.5366 4.80773L10.0166 13.8686Z" fill="white"/>
<path d="M3.71215 52.8157C3.02795 52.8157 2.35344 52.4995 1.92018 51.9039C1.20112 50.9153 1.41969 49.5312 2.4085 48.8121L25.0116 32.3734C26.0001 31.6544 27.3846 31.8732 28.1034 32.8617C28.8224 33.8503 28.6038 35.2344 27.615 35.9535L5.01193 52.3922C4.61906 52.678 4.16312 52.8157 3.71215 52.8157Z" fill="white"/>
<path d="M3.10432 41.7887C2.42012 41.7887 1.74561 41.4724 1.31235 40.8768C0.59329 39.8882 0.811856 38.5041 1.80066 37.785L16.6823 26.9618C17.6708 26.2428 19.0553 26.4613 19.774 27.4501C20.4931 28.4387 20.2745 29.8228 19.2857 30.5419L4.4041 41.3651C4.01151 41.6509 3.55556 41.7887 3.10432 41.7887Z" fill="white"/>
<path d="M12.6028 57.8187C11.9186 57.8187 11.2441 57.5025 10.8109 56.9068C10.0918 55.9183 10.3104 54.5341 11.2992 53.8151L25.0573 43.8094C26.0458 43.0904 27.4305 43.3092 28.149 44.2977C28.8681 45.2863 28.6495 46.6704 27.6607 47.3895L13.9026 57.3952C13.51 57.681 13.0541 57.8187 12.6028 57.8187Z" fill="white"/>
<path d="M27.0733 66.8107C26.709 66.8107 26.344 66.7208 26.0134 66.5404L1.66676 53.2604C0.955722 52.8725 0.513332 52.1274 0.513332 51.3173V20.3307C0.513332 19.5497 0.925012 18.8262 1.59676 18.4275C2.26934 18.0291 3.10127 18.0142 3.78658 18.3874L28.1332 31.6674C28.8443 32.0553 29.2867 32.8006 29.2867 33.6104V64.5971C29.2867 65.3781 28.875 66.1016 28.2032 66.5003C27.8552 66.7069 27.4645 66.8107 27.0733 66.8107ZM4.94 50.0035L24.86 60.8687V34.9246L4.94 24.0593V50.0035Z" fill="#FB6B00"/>
</svg>
