<svg width="21" height="17" viewBox="0 0 21 17" fill="none" xmlns="http://www.w3.org/2000/svg">
<path d="M19.1543 0.501953H1.84567C1.56156 0.501953 1.29557 0.571803 1.05493 0.686934L10.459 10.091L12.5667 8.06532C12.5667 8.06532 12.5669 8.06511 12.5669 8.06503C12.567 8.06495 12.5671 8.06487 12.5671 8.06487L19.9453 0.687098C19.7046 0.571885 19.4385 0.501953 19.1543 0.501953Z" fill="#FB6B00"/>
<path d="M20.8153 1.55713L13.8721 8.50001L20.8151 15.443C20.9302 15.2024 21.0001 14.9364 21.0001 14.6523V2.34758C21.0001 2.06363 20.9304 1.79769 20.8153 1.55713Z" fill="#FB6B00"/>
<path d="M0.18498 1.55713C0.0698496 1.79777 0 2.06375 0 2.34787V14.6526C0 14.9365 0.0697676 15.2025 0.184816 15.4431L7.12806 8.50021L0.18498 1.55713Z" fill="#FB6B00"/>
<path d="M13.002 9.36996L10.894 11.3958C10.7738 11.516 10.6164 11.5761 10.459 11.5761C10.3017 11.5761 10.1442 11.516 10.0241 11.3958L7.99806 9.36987L1.05469 16.3128C1.29537 16.428 1.56152 16.4979 1.84571 16.4979H19.1543C19.4384 16.4979 19.7044 16.4281 19.945 16.313L13.002 9.36996Z" fill="#FB6B00"/>
</svg>
