<svg width="568" height="591" viewBox="0 0 568 591" fill="none" xmlns="http://www.w3.org/2000/svg">
<path d="M63.9409 259.744L127.882 222.922V149.03L63.9409 112.208L0 149.03V222.922L63.9409 259.744Z" fill="url(#paint0_radial)"/>
<path d="M383.396 148.283V222.176L447.337 258.998V185.354L383.396 148.283Z" fill="#FF9100"/>
<path d="M511.029 148.283V222.176L447.337 258.998V185.354L511.029 148.283Z" fill="url(#paint1_radial)"/>
<path d="M383.396 148.283L447.337 185.354V111.461L383.396 148.283Z" fill="#FF9100"/>
<path d="M511.029 148.283L447.337 185.354V111.461L511.029 148.283Z" fill="#FF9100"/>
<path d="M383.396 222.176L447.337 258.998V185.354L383.396 222.176Z" fill="#FF9100"/>
<path d="M511.029 222.176L447.337 258.998V185.354L511.029 222.176Z" fill="#FF4800"/>
<path d="M447.337 185.354V221.678L479.183 240.587L511.029 222.176L447.337 185.354Z" fill="url(#paint2_linear)"/>
<path d="M255.515 148.283V222.176L319.456 258.998V185.354L255.515 148.283Z" fill="#FF9100"/>
<path d="M383.397 148.283V222.176L319.456 258.998V185.354L383.397 148.283Z" fill="url(#paint3_radial)"/>
<path d="M255.515 148.283L319.456 185.354V111.461L255.515 148.283Z" fill="#FF9100"/>
<path d="M383.397 148.283L319.456 185.354V111.461L383.397 148.283Z" fill="#FF9100"/>
<path d="M255.515 222.176L319.456 258.998V185.354L255.515 222.176Z" fill="#FF9100"/>
<path d="M383.397 222.176L319.456 258.998V185.354L383.397 222.176Z" fill="#FF4800"/>
<path d="M319.456 185.354V221.678V258.998L383.397 222.176L319.456 185.354Z" fill="url(#paint4_linear)"/>
<path d="M127.882 148.283V222.176L191.574 258.998V185.354L127.882 148.283Z" fill="#FFB655"/>
<path d="M255.515 148.283V222.176L191.574 258.998V185.354L255.515 148.283Z" fill="url(#paint5_radial)"/>
<path d="M127.882 222.176L191.574 258.998V185.354L127.882 222.176Z" fill="#FFB655"/>
<path d="M255.515 222.176L191.574 258.998V185.354L255.515 222.176Z" fill="#FF4800"/>
<path d="M191.574 185.354V221.678L223.669 240.587L255.515 222.176L191.574 185.354Z" fill="url(#paint6_linear)"/>
<path d="M319.456 111.461V37.8172L255.515 0.746399V74.6392L319.456 111.461Z" fill="#FF9100"/>
<path d="M191.574 111.461V37.8172L255.515 0.746399V74.6392L191.574 111.461Z" fill="url(#paint7_radial)"/>
<path d="M319.456 111.461L255.515 74.6392L191.574 111.461L127.882 148.283L191.574 185.354L255.515 148.283L319.456 111.461Z" fill="url(#paint8_radial)"/>
<path d="M319.456 37.8172L255.515 0.746399V74.6392L319.456 37.8172Z" fill="#FF9100"/>
<path d="M127.882 295.82V369.713L191.574 406.535V332.891L127.882 295.82Z" fill="#FF9100"/>
<path d="M255.515 295.82V369.713L191.574 406.535V332.891L255.515 295.82Z" fill="url(#paint9_radial)"/>
<path d="M127.882 295.82L191.574 332.891L255.515 295.82L319.456 258.998L255.515 222.176L191.574 258.998L127.882 295.82Z" fill="url(#paint10_radial)"/>
<path d="M127.882 369.713L191.574 406.535V332.891L127.882 369.713Z" fill="#FF9100"/>
<path d="M511.03 221.43L574.97 258.252V184.359L511.03 221.43Z" fill="#FF4800"/>
<path d="M511.03 147.537V221.43L574.97 258.252V184.359V110.715L511.03 147.537Z" fill="url(#paint11_radial)"/>
<path d="M511.03 369.713V295.82L574.97 258.998V332.891L511.03 369.713Z" fill="url(#paint12_radial)"/>
<path d="M511.03 369.713L574.97 332.891V406.535L511.03 369.713Z" fill="url(#paint13_radial)"/>
<path d="M511.03 295.82L574.97 258.998V332.891L511.03 295.82Z" fill="#FF4800"/>
<path d="M511.03 369.713L542.876 351.302L543.124 314.48L511.03 295.82V369.713Z" fill="url(#paint14_linear)"/>
<path d="M319.456 332.891V258.998L383.397 222.176V295.82L319.456 332.891Z" fill="#FF4800"/>
<path d="M319.456 332.891L383.397 295.82V369.713L319.456 332.891Z" fill="#FF9100"/>
<path d="M447.337 258.998L383.397 222.176V295.82L447.337 258.998Z" fill="#FF4800"/>
<path d="M319.456 258.998L383.397 222.176V295.82L319.456 258.998Z" fill="#FF4800"/>
<path d="M447.337 332.891V258.998L383.397 222.176V295.82V369.713L447.337 332.891Z" fill="#FFB655"/>
<path d="M319.456 332.891L351.302 314.48V277.409L319.456 258.998V332.891Z" fill="url(#paint15_linear)"/>
<path d="M383.396 369.713V443.357L447.337 480.428V406.535L383.396 369.713Z" fill="url(#paint16_radial)"/>
<path d="M511.029 369.713V443.357L447.337 480.428V406.535L511.029 369.713Z" fill="url(#paint17_radial)"/>
<path d="M383.396 369.713L447.337 406.535V332.891L383.396 369.713Z" fill="#FF9100"/>
<path d="M511.029 369.713L447.337 406.535V332.891L511.029 369.713Z" fill="url(#paint18_radial)"/>
<path d="M383.396 443.357L447.337 480.427V406.535L383.396 443.357Z" fill="#FF4800"/>
<path d="M511.029 443.357L447.337 480.427V406.535L511.029 443.357Z" fill="url(#paint19_radial)"/>
<path d="M574.97 554.071L638.911 517.249V443.357L574.97 406.535L511.03 443.357V517.249L574.97 554.071Z" fill="url(#paint20_radial)"/>
<defs>
<radialGradient id="paint0_radial" cx="0" cy="0" r="1" gradientUnits="userSpaceOnUse" gradientTransform="translate(131.015 269.705) rotate(180) scale(186.163)">
<stop offset="0.0376344" stop-color="#FF4800"/>
<stop offset="0.6588" stop-color="#FF7A00"/>
<stop offset="1" stop-color="#FF9100"/>
</radialGradient>
<radialGradient id="paint1_radial" cx="0" cy="0" r="1" gradientUnits="userSpaceOnUse" gradientTransform="translate(543.81 140.441) scale(127.241)">
<stop offset="0.0376344" stop-color="#FF9100"/>
<stop offset="1" stop-color="#FFB655"/>
</radialGradient>
<linearGradient id="paint2_linear" x1="509.23" y1="152.864" x2="442.464" y2="265.756" gradientUnits="userSpaceOnUse">
<stop stop-color="#727176" stop-opacity="0.7"/>
<stop offset="0.1328" stop-color="#78777C" stop-opacity="0.6071"/>
<stop offset="0.3173" stop-color="#8A898E" stop-opacity="0.4779"/>
<stop offset="0.5322" stop-color="#A8A7AA" stop-opacity="0.3274"/>
<stop offset="0.7681" stop-color="#D0D0D1" stop-opacity="0.1623"/>
<stop offset="1" stop-color="white" stop-opacity="0"/>
</linearGradient>
<radialGradient id="paint3_radial" cx="0" cy="0" r="1" gradientUnits="userSpaceOnUse" gradientTransform="translate(416.031 140.441) scale(127.241)">
<stop offset="0.0376344" stop-color="#FF9100"/>
<stop offset="1" stop-color="#FFB655"/>
</radialGradient>
<linearGradient id="paint4_linear" x1="411.314" y1="102.369" x2="277.784" y2="328.153" gradientUnits="userSpaceOnUse">
<stop stop-color="#727176" stop-opacity="0.7"/>
<stop offset="0.1328" stop-color="#78777C" stop-opacity="0.6071"/>
<stop offset="0.3173" stop-color="#8A898E" stop-opacity="0.4779"/>
<stop offset="0.5322" stop-color="#A8A7AA" stop-opacity="0.3274"/>
<stop offset="0.7681" stop-color="#D0D0D1" stop-opacity="0.1623"/>
<stop offset="1" stop-color="white" stop-opacity="0"/>
</linearGradient>
<radialGradient id="paint5_radial" cx="0" cy="0" r="1" gradientUnits="userSpaceOnUse" gradientTransform="translate(288.253 140.441) scale(127.241)">
<stop offset="0.0376344" stop-color="#FF9100"/>
<stop offset="1" stop-color="#FFB655"/>
</radialGradient>
<linearGradient id="paint6_linear" x1="253.672" y1="152.864" x2="186.907" y2="265.756" gradientUnits="userSpaceOnUse">
<stop stop-color="#727176" stop-opacity="0.7"/>
<stop offset="0.1328" stop-color="#78777C" stop-opacity="0.6071"/>
<stop offset="0.3173" stop-color="#8A898E" stop-opacity="0.4779"/>
<stop offset="0.5322" stop-color="#A8A7AA" stop-opacity="0.3274"/>
<stop offset="0.7681" stop-color="#D0D0D1" stop-opacity="0.1623"/>
<stop offset="1" stop-color="white" stop-opacity="0"/>
</linearGradient>
<radialGradient id="paint7_radial" cx="0" cy="0" r="1" gradientUnits="userSpaceOnUse" gradientTransform="translate(158.972 119.391) rotate(180) scale(127.241)">
<stop offset="0.0376344" stop-color="#FF9100"/>
<stop offset="1" stop-color="#FFB655"/>
</radialGradient>
<radialGradient id="paint8_radial" cx="0" cy="0" r="1" gradientUnits="userSpaceOnUse" gradientTransform="translate(171.97 163.208) scale(162.454)">
<stop stop-color="#FF9100"/>
<stop offset="0.1909" stop-color="#FF8E00"/>
<stop offset="0.3469" stop-color="#FF8400"/>
<stop offset="0.4905" stop-color="#FF7300"/>
<stop offset="0.6259" stop-color="#FF5B00"/>
<stop offset="0.7087" stop-color="#FF4800"/>
</radialGradient>
<radialGradient id="paint9_radial" cx="0" cy="0" r="1" gradientUnits="userSpaceOnUse" gradientTransform="translate(288.253 287.992) scale(127.241)">
<stop offset="0.0376344" stop-color="#FF9100"/>
<stop offset="1" stop-color="#FFB655"/>
</radialGradient>
<radialGradient id="paint10_radial" cx="0" cy="0" r="1" gradientUnits="userSpaceOnUse" gradientTransform="translate(275.254 244.175) rotate(180) scale(162.454)">
<stop offset="0.2913" stop-color="#FF4800"/>
<stop offset="0.3741" stop-color="#FF5B00"/>
<stop offset="0.5095" stop-color="#FF7300"/>
<stop offset="0.6531" stop-color="#FF8400"/>
<stop offset="0.8091" stop-color="#FF8E00"/>
<stop offset="1" stop-color="#FF9100"/>
</radialGradient>
<radialGradient id="paint11_radial" cx="0" cy="0" r="1" gradientUnits="userSpaceOnUse" gradientTransform="translate(526.06 55.8866) scale(252.505)">
<stop stop-color="#FF9100"/>
<stop offset="0.00592664" stop-color="#FF9000"/>
<stop offset="0.264" stop-color="#FF7100"/>
<stop offset="0.5146" stop-color="#FF5A00"/>
<stop offset="0.752" stop-color="#FF4D00"/>
<stop offset="0.9624" stop-color="#FF4800"/>
</radialGradient>
<radialGradient id="paint12_radial" cx="0" cy="0" r="1" gradientUnits="userSpaceOnUse" gradientTransform="translate(561.301 279.786) rotate(180) scale(128.414)">
<stop offset="0.0376344" stop-color="#B20F0F"/>
<stop offset="0.2419" stop-color="#B7120E"/>
<stop offset="0.4725" stop-color="#C41D0B"/>
<stop offset="0.7157" stop-color="#DB2D07"/>
<stop offset="0.9664" stop-color="#FA4401"/>
<stop offset="1" stop-color="#FF4800"/>
</radialGradient>
<radialGradient id="paint13_radial" cx="0" cy="0" r="1" gradientUnits="userSpaceOnUse" gradientTransform="translate(403.667 312.836) rotate(180) scale(186.702)">
<stop stop-color="#FF9100"/>
<stop offset="0.00592664" stop-color="#FF9000"/>
<stop offset="0.264" stop-color="#FF7100"/>
<stop offset="0.5146" stop-color="#FF5A00"/>
<stop offset="0.752" stop-color="#FF4D00"/>
<stop offset="0.9624" stop-color="#FF4800"/>
</radialGradient>
<linearGradient id="paint14_linear" x1="444.041" y1="332.718" x2="574.451" y2="332.774" gradientUnits="userSpaceOnUse">
<stop stop-color="#727176" stop-opacity="0.7"/>
<stop offset="0.099141" stop-color="#79787D" stop-opacity="0.609"/>
<stop offset="0.2471" stop-color="#8D8D91" stop-opacity="0.4731"/>
<stop offset="0.4257" stop-color="#AFAEB1" stop-opacity="0.3091"/>
<stop offset="0.6263" stop-color="#DCDCDD" stop-opacity="0.1249"/>
<stop offset="0.7623" stop-color="white" stop-opacity="0"/>
</linearGradient>
<linearGradient id="paint15_linear" x1="252.363" y1="295.827" x2="382.774" y2="295.883" gradientUnits="userSpaceOnUse">
<stop stop-color="#727176" stop-opacity="0.7"/>
<stop offset="0.099141" stop-color="#79787D" stop-opacity="0.609"/>
<stop offset="0.2471" stop-color="#8D8D91" stop-opacity="0.4731"/>
<stop offset="0.4257" stop-color="#AFAEB1" stop-opacity="0.3091"/>
<stop offset="0.6263" stop-color="#DCDCDD" stop-opacity="0.1249"/>
<stop offset="0.7623" stop-color="white" stop-opacity="0"/>
</linearGradient>
<radialGradient id="paint16_radial" cx="0" cy="0" r="1" gradientUnits="userSpaceOnUse" gradientTransform="translate(369.764 341.948) scale(188.648 188.647)">
<stop stop-color="#FF9100"/>
<stop offset="0.00592664" stop-color="#FF9000"/>
<stop offset="0.264" stop-color="#FF7100"/>
<stop offset="0.5146" stop-color="#FF5A00"/>
<stop offset="0.752" stop-color="#FF4D00"/>
<stop offset="0.9624" stop-color="#FF4800"/>
</radialGradient>
<radialGradient id="paint17_radial" cx="0" cy="0" r="1" gradientUnits="userSpaceOnUse" gradientTransform="translate(543.81 361.772) scale(127.238)">
<stop offset="0.0376344" stop-color="#FF9100"/>
<stop offset="1" stop-color="#FFB655"/>
</radialGradient>
<radialGradient id="paint18_radial" cx="0" cy="0" r="1" gradientUnits="userSpaceOnUse" gradientTransform="translate(618.561 426.539) scale(186.702)">
<stop stop-color="#FF9100"/>
<stop offset="0.00592664" stop-color="#FF9000"/>
<stop offset="0.264" stop-color="#FF7100"/>
<stop offset="0.5146" stop-color="#FF5A00"/>
<stop offset="0.752" stop-color="#FF4D00"/>
<stop offset="0.9624" stop-color="#FF4800"/>
</radialGradient>
<radialGradient id="paint19_radial" cx="0" cy="0" r="1" gradientUnits="userSpaceOnUse" gradientTransform="translate(550.142 463.859) scale(152.924 152.924)">
<stop stop-color="#FF9100"/>
<stop offset="0.00592664" stop-color="#FF9000"/>
<stop offset="0.264" stop-color="#FF7100"/>
<stop offset="0.5146" stop-color="#FF5A00"/>
<stop offset="0.752" stop-color="#FF4D00"/>
<stop offset="0.9624" stop-color="#FF4800"/>
</radialGradient>
<radialGradient id="paint20_radial" cx="0" cy="0" r="1" gradientUnits="userSpaceOnUse" gradientTransform="translate(642.129 564.052) rotate(180) scale(186.162)">
<stop offset="0.0376344" stop-color="#FF4800"/>
<stop offset="0.248" stop-color="#FF4D00"/>
<stop offset="0.4854" stop-color="#FF5A00"/>
<stop offset="0.736" stop-color="#FF7100"/>
<stop offset="0.9941" stop-color="#FF9000"/>
<stop offset="1" stop-color="#FF9100"/>
</radialGradient>
</defs>
</svg>
