<svg width="86" height="91" viewBox="0 0 86 91" fill="none" xmlns="http://www.w3.org/2000/svg">
<path d="M31.5903 67.9862C31.6733 68.0085 31.7581 68.0236 31.8437 68.0312H66.9062C67.3289 68.0312 67.7343 67.8617 68.0331 67.5599C68.332 67.2581 68.4999 66.8487 68.4999 66.4219V2.04688C68.4999 1.62004 68.332 1.21069 68.0331 0.908875C67.7343 0.607059 67.3289 0.4375 66.9062 0.4375H31.8437C31.421 0.4375 31.0156 0.607059 30.7167 0.908875C30.4178 1.21069 30.2499 1.62004 30.2499 2.04688V32.0134C31.1838 31.7913 32.1555 31.7856 33.0918 31.9969C34.0282 32.2081 34.9051 32.6308 35.6565 33.2333C36.408 33.8357 37.0146 34.6022 37.4307 35.4752C37.8469 36.3482 38.0618 37.305 38.0593 38.2739C38.0597 39.4034 37.7668 40.5132 37.2098 41.4927L29.8244 56.6449L30.6213 58.4345C31.4311 60.283 31.8476 62.2826 31.8437 64.3039V65.342C31.84 66.2294 31.7551 67.1145 31.5903 67.9862ZM62.1249 58.375C62.1249 58.8018 61.957 59.2112 61.6581 59.513C61.3593 59.8148 60.9539 59.9844 60.5312 59.9844H54.1562V56.7656H58.9374V51.9375H62.1249V58.375ZM54.1562 8.48438H60.5312C60.9539 8.48438 61.3593 8.65393 61.6581 8.95575C61.957 9.25757 62.1249 9.66692 62.1249 10.0938V16.5312H58.9374V11.7031H54.1562V8.48438ZM60.5312 34.2344C60.5312 36.4625 59.8769 38.6406 58.651 40.4932C57.4252 42.3458 55.6828 43.7898 53.6443 44.6425C51.6057 45.4951 49.3626 45.7182 47.1985 45.2835C45.0344 44.8489 43.0465 43.7759 41.4863 42.2004C39.926 40.6248 38.8635 38.6175 38.4331 36.4322C38.0026 34.2469 38.2235 31.9817 39.0679 29.9232C39.9123 27.8647 41.3422 26.1052 43.1769 24.8673C45.0115 23.6295 47.1684 22.9688 49.3749 22.9688C52.3327 22.9722 55.1684 24.1602 57.2599 26.2721C59.3514 28.3841 60.5278 31.2476 60.5312 34.2344ZM36.6249 16.5312V10.0938C36.6249 9.66692 36.7928 9.25757 37.0917 8.95575C37.3906 8.65393 37.796 8.48438 38.2187 8.48438H44.5937V11.7031H39.8124V16.5312H36.6249ZM36.6249 51.9375H39.8124V56.7656H44.5937V59.9844H38.2187C37.796 59.9844 37.3906 59.8148 37.0917 59.513C36.7928 59.2112 36.6249 58.8018 36.6249 58.375V51.9375Z" fill="#FB6B00"/>
<path d="M49.375 42.2812C53.776 42.2812 57.3438 38.6785 57.3438 34.2344C57.3438 29.7902 53.776 26.1875 49.375 26.1875C44.974 26.1875 41.4062 29.7902 41.4062 34.2344C41.4062 38.6785 44.974 42.2812 49.375 42.2812Z" fill="#FB6B00"/>
<path d="M23.875 39.658L26.1142 35.1388C26.3804 34.6813 26.6986 34.2567 27.0625 33.8739V2.04688C27.0678 1.49737 27.167 0.952914 27.3558 0.4375H25.4688C25.0461 0.4375 24.6407 0.607059 24.3418 0.908875C24.0429 1.21069 23.875 1.62004 23.875 2.04688V39.658Z" fill="#FB6B00"/>
<path d="M26.4728 56.616V56.6047V56.5629C26.4805 56.3327 26.5347 56.1065 26.6321 55.8982L34.3953 39.9815C34.7016 39.4669 34.8666 38.8792 34.8734 38.2788C34.8746 37.5692 34.6436 36.8791 34.2162 36.3159C33.7889 35.7526 33.1893 35.3477 32.5105 35.1641C31.8317 34.9806 31.1119 35.0287 30.463 35.3009C29.8141 35.5731 29.2725 36.0542 28.9223 36.6694L20.1998 54.2679L17.3485 52.8195L20.6874 46.0907V27.9337C19.4789 28.182 18.4129 28.8939 17.7135 29.9197L10.4333 40.7025C8.80597 43.105 7.93598 45.9481 7.93744 48.8588V90.5625H23.8749V76.0782C23.8749 75.7299 23.9868 75.3911 24.1937 75.1125L26.4249 72.0885C27.8668 70.14 28.6491 67.7745 28.6562 65.342V64.304C28.6585 62.7301 28.3327 61.1733 27.6999 59.735L26.6736 57.3982C26.5421 57.1606 26.4735 56.8929 26.4743 56.6208L26.4728 56.616Z" fill="#FB6B00"/>
<path d="M6.21939 5.26558L3.1562 1.40308L0.0930176 5.26558C0.493802 5.29724 0.867932 5.48068 1.14043 5.77913C1.41294 6.07758 1.56368 6.469 1.56245 6.87495V22.9687H4.74995V6.87495C4.74873 6.469 4.89947 6.07758 5.17197 5.77913C5.44448 5.48068 5.81861 5.29724 6.21939 5.26558Z" fill="#FB6B00"/>
<path d="M1.5625 26.1875H4.75V29.4062H1.5625V26.1875Z" fill="#FB6B00"/>
<path d="M1.5625 32.625H4.75V35.8438H1.5625V32.625Z" fill="#FB6B00"/>
<path d="M85.9069 35.8437L82.8437 31.9812L79.7805 35.8437C80.1813 35.8754 80.5554 36.0588 80.8279 36.3573C81.1004 36.6557 81.2512 37.0471 81.25 37.4531V53.5468H84.4375V37.4531C84.4362 37.0471 84.587 36.6557 84.8595 36.3573C85.132 36.0588 85.5061 35.8754 85.9069 35.8437Z" fill="#FB6B00"/>
<path d="M81.25 56.7656H84.4375V59.9844H81.25V56.7656Z" fill="#FB6B00"/>
<path d="M81.25 63.2031H84.4375V66.4219H81.25V63.2031Z" fill="#FB6B00"/>
</svg>
