<svg width="92" height="80" viewBox="0 0 92 80" fill="none" xmlns="http://www.w3.org/2000/svg">
<path d="M44 22.5479C40.9727 26.0098 36.5986 27.9971 32 28H24V32H20V28H16V36H12V28C10.6494 27.9951 9.30566 27.8184 8 27.4736V32H4V25.8359C2.49805 24.9629 1.14746 23.8525 0 22.5479V34C0.00683595 39.5205 4.47949 43.9932 10 44H28V38C28 37.9883 28 37.9756 28 37.9639C28.0068 37.7373 28.0508 37.5137 28.1318 37.3018C28.1631 37.2305 28.1973 37.1602 28.2363 37.0918C28.3076 36.9541 28.3945 36.8242 28.4961 36.7061C28.5527 36.6357 28.6143 36.5684 28.6797 36.5059C28.7217 36.4697 28.748 36.4238 28.792 36.3897L44 25V22.5479Z" fill="#FB6B00"/>
<path d="M44 36V30L36 36H44Z" fill="#FB6B00"/>
<path d="M12 24H32C37.9219 23.9932 42.9531 19.668 43.8477 13.8145L44 11.9482C43.9648 5.34375 38.6045 0.00683595 32 0H12C5.37305 0 0 5.37305 0 12C0 18.627 5.37305 24 12 24ZM14 4H30C34.418 4 38 7.58203 38 12C38 16.418 34.418 20 30 20H14C9.58203 20 6 16.418 6 12C6 7.58203 9.58203 4 14 4Z" fill="#FB6B00"/>
<path d="M14 16H30C32.209 16 34 14.209 34 12C34 9.79101 32.209 8 30 8H14C11.791 8 10 9.79101 10 12C10 14.209 11.791 16 14 16Z" fill="#FB6B00"/>
<path d="M80 56H76V52H72V60H68V52H64V56H60V52H56V66C56 67.1045 56.8955 68 58 68H84V52H80V56Z" fill="#FB6B00"/>
<path d="M56 40V44H52V40H48V48H44V40H40V44H36V40H32V54C32 55.1045 32.8955 56 34 56H52V50C52 49.9883 52 49.9756 52 49.9639C52.0068 49.7373 52.0508 49.5137 52.1318 49.3018C52.1631 49.2305 52.1973 49.1602 52.2363 49.0918C52.3076 48.9541 52.3945 48.8242 52.4961 48.7061C52.5527 48.6387 52.6143 48.5752 52.6797 48.5156C52.7217 48.4805 52.748 48.4336 52.792 48.4004L64 40H56Z" fill="#FB6B00"/>
<path d="M88 52H92V68H88V52Z" fill="#FB6B00"/>
<path d="M64 48.0001H68V42.0001L60 48.0001H64Z" fill="#FB6B00"/>
<path d="M64 76H76V80H64V76Z" fill="#FB6B00"/>
<path d="M80 76H84V80H80V76Z" fill="#FB6B00"/>
<path d="M88 76H92V80H88V76Z" fill="#FB6B00"/>
</svg>
