<svg width="86" height="86" viewBox="0 0 86 86" fill="none" xmlns="http://www.w3.org/2000/svg">
<path d="M64.4317 0H21.5C9.69206 0 0 9.69206 0 21.5683V64.5C0 76.3079 9.69206 86 21.5 86H64.4317C76.3079 86 86 76.3079 86 64.4317V21.5683C86 9.69206 76.3079 0 64.4317 0ZM40.6794 17.6778C40.8159 15.5619 42.7952 16.3127 43.819 16.1762C56.6508 16.5857 67.7079 28.1206 67.5714 40.5429C67.5714 41.7714 67.981 43.546 66.1381 43.546C64.3635 43.546 64.8413 41.7032 64.6365 40.4746C62.9302 27.3016 56.7873 21.0905 43.4095 19.0429C42.3175 18.9063 40.6111 19.1111 40.6794 17.6778ZM59.8587 41.0889C57.8111 41.3619 58.2206 39.5873 58.0159 38.427C56.6508 30.373 53.7841 27.4381 45.5254 25.6635C44.2968 25.3905 42.3857 25.5952 42.727 23.7524C43 21.9778 44.7064 22.5921 46.0032 22.7286C54.2619 23.6841 61.0191 30.7143 60.9508 38.427C60.8143 39.246 61.3603 40.8159 59.8587 41.0889ZM54.7397 36.8571C54.7397 37.9492 54.6032 38.973 53.3746 39.1095C52.4873 39.246 51.9413 38.4952 51.8048 37.6079C51.4635 34.3317 49.6889 32.3524 46.2762 31.8063C45.2524 31.6698 44.2968 31.3286 44.7746 29.9635C45.1159 29.0762 45.9349 28.9397 46.8222 28.9397C50.5079 28.8714 54.7397 33.1714 54.7397 36.8571ZM67.7079 62.0429C66.2746 65.9333 61.4286 69.8921 57.2651 69.8238C56.6508 69.6873 55.4905 69.4825 54.4667 69.073C36.1746 61.3603 22.8651 48.6651 15.3571 30.5095C12.8317 24.4349 15.4937 19.2476 21.8413 17.2C23.0016 16.7905 24.0937 16.7905 25.254 17.2C27.9841 18.1556 34.8778 27.5063 35.0143 30.2365C35.1508 32.3524 33.6492 33.5127 32.2159 34.4683C29.4175 36.3111 29.4175 38.6317 30.646 41.2937C33.3079 47.1635 37.881 51.2587 43.819 53.8524C45.9349 54.8079 48.0508 54.7397 49.4841 52.5556C52.0778 48.6651 55.2857 48.8698 58.7667 51.2587C60.5413 52.4873 62.3159 53.6476 63.954 54.9444C66.2064 56.7873 69.073 58.2889 67.7079 62.0429Z" fill="white"/>
</svg>
